<?xml version="1.0" encoding="UTF-8"?>
<svg id="Layer_2" data-name="Layer 2" xmlns="http://www.w3.org/2000/svg" viewBox="0 0 2431.46 1546.32">
  <defs>
    <style>
      .cls-1 {
        fill: #ef8725;
        stroke-width: 0px;
      }
    </style>
  </defs>
  <g id="Layer_1-2" data-name="Layer 1">
    <path class="cls-1" d="M247.67,1424.05c-23.64-30.54-64.35-42.47-104.02-50.85,21.7-8.57,42.15-20.11,60.51-34.17,5.39-4.13,10.79-8.72,13.35-14.82,2.56-6.1,1.32-14.07-4.49-17.4-6.66-3.82-15.3-.08-21.97,4-24.44,14.97-45.42,35.13-60.93,58.54-1.06,1.61-2.12,3.33-2.8,5.11-3.78-37.72-16.8-74.4-37.78-106.27-2.36-3.59-5.17-7.36-9.46-8.5-9.68-2.57-16.66,9.29-18.31,18.82-7.4,42.72,11.39,88.16,47.15,113.96-45.23-6.24-93.69,22.94-107.67,64.82-.96,2.87-1.77,5.97-.82,8.81,2.54,7.58,13.98,6.89,22.02,4.42,32.16-9.89,62.89-24.25,90.89-42.49-15.98,16.42-29.67,35.93-33.45,57.88-3.78,21.95,4.26,46.5,23.86,58.07,2.25,1.33,4.77,2.5,7.43,2.34,2.96-.18,5.57-1.97,7.77-3.92,15.78-13.95,18.21-36.49,18.67-56.8.55-24.46-.24-48.93-2.38-73.26,16.87,33.75,54.53,56.83,94.04,57.61,6.53.13,13.45-.42,18.9-3.97,13.7-8.93,9.17-29.44-.5-41.93ZM134.02,1388.04c-2.6-1.83-5.36-3.9-6.66-6.62l.56.14c-.06-.9-.14-1.79-.21-2.68,3.13-1,6.24-2.06,9.32-3.18,22.64,17.47,44.04,36.4,64,56.61-22.77-14.15-45.12-28.92-67.01-44.27Z"/>
    <path class="cls-1" d="M1883.95,575.54c-9.74-12.29-10.24-29.51-7.85-45.01,7.98-51.84,40.95-93.09,81.48-128.13-28.48,6.04-57.32,10.35-86.34,12.81-32.7,2.78-65.56,3.19-98.28,1.27l1.83,3.59c-35.8,22.16-80.27,29.87-121.44,21.05-13.89-2.98-28.03-8.17-37.41-18.83-9.38-10.67-12.34-27.99-3.44-39.07,6.33-7.87,16.83-10.93,26.78-12.69,41.7-7.38,86,1.03,122.1,23.18l5.58,10.96c40.63,2.82,81.52,1.93,121.97-2.69,17.38-1.99,34.68-4.7,51.88-7.96-5.79-1.73-11.52-3.71-17.16-5.94-45.93-18.16-85.64-54.01-103.7-99.98-4.84-12.34-8.03-26.62-2.23-38.53,5.29-10.87,17.03-17.26,28.8-20.02,37.24-8.73,74.56,12.22,105.68,34.46,39.72,28.38,76.92,60.29,111.02,95.21,40.33-15.46,79.37-34.46,116.33-56.84,1.98-3.84,4.05-7.63,6.21-11.38-43.36,5.4-88.48-4.35-125.65-27.34-15.69-9.71-30.35-22.14-38.73-38.58-5.11-10.02-7.12-23.62.95-31.46,3.13-3.04,7.31-4.71,11.44-6.1,36-12.16,75.8-8.78,112.12,2.41,36.32,11.19,69.84,29.77,103.05,48.22,3.44,1.91,6.98,3.98,10.17,6.37l6.86-3.94s.01.09.02.13c26.4-22.02,51.2-45.95,73.91-71.75,9.62-10.93,18.9-22.2,27.78-33.77-41.57,11.24-89.23-1.52-118.75-33.1-2.19-2.34-4.36-4.92-5.04-8.05-2.61-11.97,15.27-16.33,27.4-14.67,30.37,4.16,60.48,10.21,90.1,18.11,8.63,2.3,18.26,6.2,24.89,11.95,2.18-3.17,4.41-6.3,6.53-9.51,17.07-25.91,35.22-59.99,23.69-91.65-1.06-2.92-.47-6.18,2.56-7.7,2.54-1.27,6.64-.35,7.7,2.56,2.88,7.92,4.47,15.93,4.69,24.37.86,33.93-19.34,65.21-38.03,91.91h0c.8,2.32,1.19,4.82.96,7.52l-3.48-3.63c7.1,50.67,4.52,102.67-7.54,152.38-1.97,8.13-4.41,16.58-10.27,22.55-5.86,5.97-16.2,8.36-22.62,3-4.66-3.89-5.93-10.45-6.56-16.5-4.99-48.06,12-95.06,30.7-139.99-11.57,14.9-23.71,29.34-36.49,43.22-21.76,23.64-45.28,45.58-70.13,65.89.04.32.1.63.14.95.36.76.72,1.51.99,2.32l-.6.26c11.91,92.12-10.1,188.37-61.32,265.9-5.17,7.83-11.63,16.13-20.9,17.57-16.22,2.52-26.74-16.49-30.76-32.41-15.64-61.99-9.81-129.02,15.37-187.73-31.81,18.27-64.98,34.09-99.15,47.42,2.1,2.21,4.23,4.39,6.3,6.63l-8.63,22.46c-2.28.49-4.57.93-6.86,1.37-19.52,51.25-45.77,99.93-77.95,144.34-12.05,16.63-25.62,33.23-44.26,41.86-18.64,8.62-43.61,6.83-56.36-9.26Z"/>
  </g>
</svg>